<svg width="80" height="79" viewBox="0 0 80 79" fill="none" xmlns="http://www.w3.org/2000/svg">
<path d="M44.1865 21.2021L44.8262 23.5635L46.6406 21.9229L58.5215 11.1787L53.6846 26.4502L52.9463 28.7822L55.3594 28.3828L71.1641 25.7676L58.8379 36L56.9561 37.5625L59.2021 38.5312L73.9111 44.876L58.0107 46.8193L55.582 47.1162L56.9482 49.1455L65.8916 62.4355L51.4648 55.4746L49.2617 54.4111L49.3135 56.8564L49.6523 72.873L41.2783 59.2158L40 57.1299L38.7217 59.2158L30.3467 72.873L30.6865 56.8564L30.7383 54.4111L28.5352 55.4746L14.1074 62.4355L23.0518 49.1455L24.418 47.1162L21.9893 46.8193L6.08789 44.876L20.7979 38.5312L23.0439 37.5625L21.1621 36L8.83496 25.7676L24.6406 28.3828L27.0537 28.7822L26.3154 26.4502L21.4775 11.1787L33.3594 21.9229L35.1738 23.5635L35.8135 21.2021L40 5.74023L44.1865 21.2021Z" stroke="#EEDB6D" stroke-width="3"/>
</svg>
